<svg width="20" height="91" viewBox="0 0 20 91" fill="none" xmlns="http://www.w3.org/2000/svg">
<rect y="79" width="4" height="4" fill="black"/>
<rect x="8" y="87" width="4" height="4" fill="black"/>
<rect x="8" y="79" width="4" height="4" fill="black"/>
<rect x="12" y="83" width="4" height="4" fill="black"/>
<rect x="12" y="71" width="4" height="4" fill="black"/>
<rect x="16" y="59" width="4" height="4" fill="black"/>
<rect x="12" y="55" width="4" height="4" fill="black"/>
<rect x="4" y="51" width="4" height="4" fill="black"/>
<rect y="47" width="4" height="4" fill="black"/>
<rect y="43" width="4" height="4" fill="black"/>
<rect x="8" y="35" width="4" height="4" fill="black"/>
<rect x="16" y="31" width="4" height="4" fill="black"/>
<rect x="2" y="15" width="4" height="4" fill="black"/>
<rect x="16" y="27" width="4" height="4" fill="black"/>
<rect x="2" y="11" width="4" height="4" fill="black"/>
<rect x="8" y="23" width="4" height="4" fill="black"/>
<rect x="8" y="4" width="4" height="4" fill="black"/>
<rect x="12" width="4" height="4" fill="black"/>
<rect x="4" y="63" width="4" height="4" fill="black"/>
<rect x="4" y="75" width="4" height="4" fill="black"/>
<rect y="71" width="4" height="4" fill="black"/>
</svg>
